<!-- Generator: Adobe Illustrator 25.0.0, SVG Export Plug-In  -->
<svg version="1.1" xmlns="http://www.w3.org/2000/svg" xmlns:xlink="http://www.w3.org/1999/xlink" x="0px" y="0px" width="555.7px"
	 height="68.3px" viewBox="0 0 555.7 68.3" style="overflow:visible;enable-background:new 0 0 555.7 68.3;" xml:space="preserve">
<style type="text/css">
	.st0{fill:#FFFFFF;}
</style>
<defs>
</defs>
<g>
	<path class="st0" d="M14.9,0.3c1.4,3,3.1,7.1,3.8,9.7L13,11.9h12.5v6.8H0v-6.8h10.9c-0.6-2.7-2.2-6.5-3.4-9.4L14.9,0.3z M23.6,31.7
		v6.6H1.9v-6.6H23.6z M23.6,41.8v22H9.1v2.8H1.9V41.8H23.6z M23.6,21.8v6.6H1.9v-6.6H23.6z M9.1,57h7.1v-8.3H9.1V57z M63.7,32.5
		v27.4c0,3.6-0.7,5.5-3.2,6.6s-5.8,1.2-10.4,1.2c-0.4-2-1.3-5-2.2-6.8c2.7,0.1,5.7,0.1,6.6,0.1c0.9,0,1.2-0.3,1.2-1.1v-3H36
		c-0.9,4.2-2.5,8.4-5.3,11.5c-1.2-1.5-4.4-4.5-6-5.5c4.3-5,4.7-12,4.7-17.5V32.5H63.7z M50.3,0.1v5.3h15.8v6.1H50.3v2.9h14.3v5.8
		H50.3v3.1H67v6.2H25.9v-6.2H42v-3.1H28.8v-5.8H42v-2.9H27V5.4h15V0.1H50.3z M37.1,47.7l-0.2,3.5h18.7v-3.5H37.1z M55.6,38.8H37.1
		v3.3h18.5V38.8z"/>
	<path class="st0" d="M85.7,35.3c1.2-0.4,2.3-0.9,3.5-2.3c1.1-1.2,3.6-5.3,5.8-9.1h-8.1v-6.8h12.6l1.2-0.4l5.3,2
		c-2.4,4-6.3,10.9-9.6,15.8h4.1l1.3-0.2l4.1,1.4c-0.7,5.5-1.9,10.5-3.4,14.8c4.2,7.6,12.3,8.6,24.3,8.6c7.7,0,19.6-0.4,27.8-1.2
		c-1.2,1.7-2.3,5.7-2.7,8c-7.6,0.5-16.8,0.6-25.2,0.6c-13.4,0-21.8-1.4-27.4-8.9c-2.3,4.3-5.2,7.7-8.5,10.2c-1.2-1.7-4-4.6-5.5-5.8
		c5.9-4.1,10.1-11.2,12.2-20.9h-4.7c-1.5,0-3.6,0.5-4.2,1.1C88,40.4,86.5,36.8,85.7,35.3z M93.9,0.2c3.5,3.5,7.5,7.9,9.6,10.8
		L97,15.8c-2-3.1-6.2-8.1-9.5-11.7L93.9,0.2z M105.2,21c1.2-0.6,2.4-1.9,2.4-4.7V2.5h20.1v13.8h-13.4v3.5l13.5-1.9
		c-0.5,1.7-1.1,4.5-1.2,5.9c-14.7,2.4-17.1,2.9-18.5,3.6C107.6,25.7,106.3,22.5,105.2,21z M136.1,47.2h-14.8l5.9,2
		c-3.6,3.4-9.4,6.7-14.3,8.7c-1.5-1.5-4.5-4-6.3-5.2c4.5-1.3,9.2-3.4,12.2-5.5h-13.1v-6.3h11.4v-4.5h-8.8v-6.3h8.8v-3.7h7.9v3.7h7.8
		v-3.7h8v3.7h8.9v6.3h-8.9v4.5h11.4v6.3h-13.2c4.3,2.2,9,4.9,11.9,6.8l-7.7,3.5c-2.5-2.2-7.2-5.3-11.5-7.5L136.1,47.2z M114.3,11
		h6.2V7.8h-6.2V11z M125.1,40.8h7.8v-4.5h-7.8V40.8z M150.9,2.6v13.8h-13.8v0.4c0,2,0.3,2.7,1.8,2.7c1.2,0,6.2,0,7.5,0
		c1.4,0,3.7-0.1,5-0.4c0.1,1.7,0.4,4.2,0.6,5.8c-1.2,0.4-3.4,0.5-5.4,0.5c-1.4,0-6.8,0-8.1,0c-6.6,0-8.1-2.4-8.1-8.8v-14H150.9z
		 M137.2,11.1h6.5V7.8h-6.5V11.1z"/>
	<path class="st0" d="M188.3,0.1v13.6h6.3v7.9h-6.3V32l5.6-1.6l1.1,7.8l-6.7,2.1v18.1c0,4-0.6,6.2-2.9,7.6c-2.2,1.4-5.3,1.7-10,1.7
		c-0.2-2.2-1.2-5.8-2.2-8.1c2.7,0.1,5.2,0.1,6,0.1c0.9,0,1.2-0.3,1.2-1.2V42.6l-6.6,1.9l-1.9-8.3l8.5-2.2V21.7h-7.5v-7.9h7.5V0.1
		H188.3z M208.9,37.4h-13.2v-6.5h17.2v-3.3h-14.3v-6.1h14.3v-2.8h-15.2V2.4h39.9v16.2h-16.5v2.8h15.4v6.1h-15.4v3.3h17.4v6.5h-11.2
		l5.2,1.2l-2.4,4.2h6.8v6.4h-15.7v3.3h18.4v6.3h-18.4v9h-8.2v-9h-18.5v-6.3h18.5v-3.3h-15.7v-6.4h7.8c-0.4-1.4-0.9-3-1.4-4.3
		L208.9,37.4z M204.4,13h4.2V8.2h-4.2V13z M212.8,42.8h9.6c0.7-1.7,1.5-3.7,1.9-5.4h-13.5C211.5,39.1,212.4,41.3,212.8,42.8z
		 M215.1,13h4.4V8.2h-4.4V13z M226.1,13h4.5V8.2h-4.5V13z"/>
	<path class="st0" d="M275.5,65.3V12.7l-10.6,7.6l-3.9-5.7l17.2-12.3h4.8v63H275.5z"/>
	<path class="st0" d="M342.3,7.5c-2.6,1-5.5,1.9-8.6,2.7v10.2h7.7v8h-7.7v2.2c1.9,1.5,7.5,7.4,9.1,9.2V22.3h13.9v-3h-16.3v-6.7h16.3
		v-3c-4.7,0.3-9.3,0.4-13.6,0.4c-0.2-1.9-1.2-4.8-1.9-6.4c11.9-0.4,25.9-1.4,34.3-3l5,6.3c-4.5,0.9-9.9,1.6-15.5,2v3.6h15.6v6.7
		h-15.6v3h14.5v24.3h-14.5v3.2h14.4v6.6h-14.4v3.3H382v6.8h-43.9v-6.8h18.4v-3.3h-14.3v-6.6h14.3v-3.2h-13.9v-6.3l-4.8,6.6
		c-0.9-1.9-2.6-4.7-4.3-7.3v28.2h-8.4V41.8c-2.3,5.5-5,10.7-7.8,14.3c-0.8-2.4-2.7-6-4-8.2c4-4.7,8.1-12.5,10.7-19.4h-9.2v-8h10.4
		V12c-3,0.5-6,1-8.8,1.4c-0.4-1.9-1.5-4.8-2.4-6.6c8-1.3,16.8-3.5,22.4-5.9L342.3,7.5z M350.2,31.9h6.4v-3.6h-6.4V31.9z M350.2,40.6
		h6.4V37h-6.4V40.6z M364.9,31.9h6.6v-3.6h-6.6V31.9z M364.9,40.6h6.6V37h-6.6V40.6z"/>
	<path class="st0" d="M460.3,3c-0.4,28.4-0.4,55.3,2.8,55.3c0.6,0,1.1-4.4,1.2-10.2c1.4,2.4,3.2,5.3,4.8,6.8
		c-0.8,8.6-2.4,12.7-6.8,12.7c-10.4,0-10.5-25.9-10.5-56.7h-35.4v17.1c0,12-1.2,29.2-9.2,39.8c-1.4-1.4-5-3.8-7-4.7
		c7.3-9.8,8-24.2,8-35.1V3H460.3z M449.2,14.2V21h-11.8v4.8h11.7v21h-11.7v7.1l5.3-0.4c-0.7-1.6-1.4-3.1-2.2-4.5l6.6-2
		c3,5,5.8,11.7,6.8,16.1l-7.1,2.4c-0.3-1.4-0.7-3.1-1.3-4.9L416,62.9l-0.6-7.7l14.5-0.8v-7.6h-11.2v-21h11.2V21h-11.4v-6.8H449.2z
		 M425.3,40.3h4.6v-7.8h-4.6V40.3z M437.4,40.3h4.8v-7.8h-4.8V40.3z"/>
	<path class="st0" d="M505.7,0.1V15h8.1v4c5.2-5,9.6-11.9,12.2-18.9l8.3,2.3c-0.7,1.8-1.6,3.6-2.4,5.4h11.7l1.4-0.3l5.5,2.5
		c-2.4,7.5-6.3,13.9-11,19.3c4.5,3.4,10,6.3,16.3,8.1c-1.7,1.7-4.2,5-5.3,7.1l-1.3-0.5v23.6h-8.4v-2.3h-15v2.5h-8V44.6l-3.7,1.5
		c-0.8-1.7-2.3-4-3.7-5.7l-0.6,0.9c-0.9-1.8-2.4-4.5-4-7v33.3h-8.1V40.2c-2.1,5.8-4.5,11.2-7.2,14.8c-0.8-2.3-2.7-5.7-4-7.8
		c4.5-5.7,8.4-15.6,10.5-24.3H488v-8h9.5V0.1H505.7z M517,27.7c-1.1-1.2-3.2-3.2-5-4.7h-6.3v1.7c1.9,1.9,7.4,8.5,8.6,10.1l-2.4,3.4
		c5.8-2.1,11.2-5.2,15.9-9c-2.1-2.3-3.9-4.7-5.4-7.1C520.6,24.1,518.8,26,517,27.7z M542.1,40.7c-3.1-1.7-5.9-3.7-8.5-5.9
		c-2.6,2.2-5.3,4.2-8.2,5.9H542.1z M540.8,57.8V48h-15v9.9H540.8z M527.1,15.7c1.6,2.7,3.7,5.5,6.2,8.1c2.4-2.7,4.5-5.5,6.1-8.7h-12
		L527.1,15.7z"/>
</g>
</svg>
