<svg fill='#fff' xmlns="http://www.w3.org/2000/svg" xml:space="preserve" width="164" height="34.4" style="overflow:visible" viewBox="0 0 164 34.4"><path d="M34.2 26.2h-4v2.6c0 2.5-.5 3.9-2.2 4.6-1.7.8-3.9.9-6.9.9-.3-1.4-1.1-3.6-1.8-4.9 1.8.1 4.1.1 4.8.1.6 0 .9-.2.9-.8v-2.5H9.2v8.1H4v-8.1H0v-4.8h4V8.3h10.3V6.6H1.5V1.8h31.1v4.8h-13v1.7h10.6v13.1h4zM9.2 13v1.9h5.1V13zm0 8.4h5.1v-2.1H9.2zM19.6 13v1.9H25V13zm5.4 8.4v-2.1h-5.4v2.1zm31.2-1.2c-1.2.3-2.4.6-3.7.9v7.5c0 2.4-.4 3.7-1.7 4.5s-3.1 1-5.5 1c-.1-1.4-.8-3.5-1.4-4.9h2.6c.4 0 .6-.1.6-.6v-6.2l-3.1.8-1-5.3c1.2-.2 2.6-.5 4.2-.8v-5.3h-3.7V6.6h3.7V0h5.4v6.6h3.3v5.1h-3.3v4.1l3.1-.7zM75.9 6.3v27.4h-5.5v-1.5h-8.3V34h-5.2V6.3h5.9c.5-2.1.9-4.4 1.1-6.3l6.3.6c-.6 2-1.3 3.9-1.9 5.7zm-13.8 5v5.4h8.3v-5.4zm8.3 15.9v-5.7h-8.3v5.7zm49.9-13.3v5.7H86.8v-5.7zm21.3 10.5h-11.5v-5.2h11.5zM141 10h-10.2V5H141zm12.7 5.3c1.4 6.6 4.3 11.7 10.3 14-1.2 1-2.8 3.2-3.5 4.7-4.2-2-6.9-5.1-8.7-9.3-1.7 3.6-4.7 7.1-10.2 9.6-.8-1.3-2.7-3.3-4-4.3 9.3-4 10.4-10.8 10.4-15.2v-3.6h5.7zm-6.5-4.6c-1.2 2.9-2.6 5.5-4.1 7.5-1.2-.9-3.8-2.3-5.3-3 3.1-3.3 5.4-9.2 6.4-15.1l5.8 1c-.3 1.5-.7 3-1.1 4.4h9.6l1-.3 3.9 2.3c-.9 4-2.4 8-3.8 10.9-1.1-.6-3.2-1.6-4.5-2.1.6-1.4 1.3-3.5 1.8-5.5h-9.7z"/></svg>