<svg xmlns="http://www.w3.org/2000/svg" xml:space="preserve" width="293.8" height="53.5" style="overflow:visible" viewBox="0 0 293.8 53.5"><path d="m0 48.3 16.2-43h7.5l16.3 43h-7.3L21.8 18l-1.6-5h-.4l-1.6 5L7.3 48.3zm7.7-11.1 2.2-6.1h9.5v6.1zm11.7 0v-6.1h10l2.2 6.1zm29.3 11.1v-43h6.6v43zm27.4-6.4c-1.5 3.4-3.9 7.3-6 9.7-1.1-1-3.3-2.7-4.6-3.5 2-2.1 3.9-5.1 5.1-7.8zm6-23.1h-14V2.7h27v16.1H84c.5.8 1 1.7 1.3 2.6H97v5.1H65.6v-5.1h12.6l-.8-1.6zm12.2 9.6V40h-9.7v7.4c0 2.7-.4 4.1-2.3 5-1.8.8-4.1.8-7.2.8-.3-1.7-1.1-3.9-1.8-5.4 1.7.1 3.5.1 4 .1.6 0 .8-.2.8-.7V40H69V28.4zM74.4 8.8h14v-2h-14zm0 6h14v-2.1h-14zm.8 20.9h12.5v-2.9H75.2zm15 4.4c1.4 2.3 3.1 5.2 4.2 7.4 6.6-3.1 13.1-8.6 16.6-14.9l6.2 2.3c-4.2 7.6-10.8 13.8-18.2 18-1-1.6-2.9-3.7-4.4-5.1l.5 1.2-5 2.4c-.8-2.4-2.7-6.3-4.5-9.2zM115 4.2c-3.9 5.4-9.5 10.3-14.8 13.6-1.1-1.4-3-3.4-4.8-4.6 4.8-2.6 10.3-7.1 13.3-11.5zm1.2 15.3c-4.1 5.7-10.3 10.9-16 14.4-1-1.5-3-3.5-4.6-4.8 5.1-2.7 11.3-7.5 14.5-12.2zM139 1.6v11.9h18.2V.8h7v19.4H139v.4c0 2.3-.1 4.6-.2 6.9H166v25.7h-7v-19h-20.8c-1.1 7-3.4 13.7-8.6 19.2-1.1-1.6-3.6-4.1-5.1-5.3 6.9-7.6 7.7-18 7.7-27.5v-19zm45.9 16.9v-16h18.3v15.9h2.3v8.8H203v20.2c0 2.4-.4 3.8-2 4.6s-3.6.9-6.5.9c-.2-1.4-.9-3.6-1.6-4.9 1.6.1 3.3.1 3.8.1.6 0 .7-.2.7-.7v-5.1l-5.4 3.5-1.5-3.1c-.4 3.9-1.5 7.8-3.4 10.8-1-1-3.4-2.6-4.7-3.2 2.8-4.2 3-9.9 3-14.4v-8.6h-2.8v-8.8zm15.5 4.5h-12.9v2.3h12.9zm-2.7-13.4V7.3h-7.6v11.2h2.1V9.6zm-.3 25.9-2.2 2.5c-1-1-2.7-2.5-4.3-3.7V36c0 1.6-.1 3.3-.2 5.1 2-.8 4.3-1.9 6.8-3.1v-2.5zm-6.5-5.9v3.2l1.9-1.9c1.6 1.1 3.4 2.3 4.6 3.4v-4.6h-6.5zm6.8-16.3h-2.1v5.1h2.1zm16 29.1h-5.9v-11H232v11h-6.3l4.2 1.2-2.5 4h7.3v4.9H205v-4.9h6.7c-.4-1.3-1-2.9-1.5-4.1zm20.6-17.6v4.8h-28.6v-4.8zm-21.1-20v-4h5.2v4h2.4v-4h5.3v4h7.2v18h-26.7v-18zm-1.7 6.9h2.9V9.2h-2.9zm0 6.8h2.9v-2.6h-2.9zm2.1 19.9h12.2v-2.9h-12.2zm10.2 4h-8.3c.7 1.6 1.5 3.6 2 5.1h4.5c.6-1.6 1.3-3.5 1.8-5.1m-5.4-30.7h2.6V9.2h-2.6zm0 6.8h2.6v-2.6h-2.6zm6.7-6.8h2.9V9.2h-2.9zm0 6.8h2.9v-2.6h-2.9zm21.2 18.7c-.4 3.7-1.1 9.1-2.1 12.2l-3.6-1.3c1.1-3.2 1.9-8.4 2.3-12.1zm36-35.1-1.1 1.7c3.4 3 8.3 5.9 12.6 7.6-1 1.5-2.1 4.5-2.5 6.1-1.7-.9-3.5-1.9-5.3-3.1v3.7h-16.5v-2.9c-1.3.9-2.6 1.7-3.9 2.5-.8-1.1-2.5-2.9-3.7-4V17H257v3.3h5v5h-5v3.4h6.2s0 1.5-.1 2.1c-.3 10.5-.5 15.9-1.2 18.6 3.3-3.2 5.4-8.1 6.5-13.5l5.6 1c-.3 1.5-.7 2.9-1.1 4.3 2 1.3 4.1 2.9 5.3 4.1l-3.4 4.4c-.8-1-2.3-2.2-4-3.4-1.3 2.7-2.9 5.1-4.8 7-.9-.9-3-2.7-4.3-3.6-.2.6-.4 1-.6 1.3-.8 1.2-1.8 1.7-3.1 1.8-1.1.2-2.9.3-4.6.2-.1-1.5-.6-3.6-1.3-5 1.4.2 2.6.2 3.2.2s1-.1 1.4-.6c.3-.5.6-1.9.8-4.8l-2 .7c-.4-2-1.5-5-2.3-7.3l2.3-.8c.7 1.7 1.5 3.8 2 5.5l.2-6.8h-14.6V2.9h19.5v5.5h-5.8V12h4.9v1.2C268 10 273.4 4.9 276.3 0zM249.5 37c.3 3.3.5 7.4.5 10.2l-2.9.3c.1-2.8 0-7-.3-10.3zm2.6-28.6h-3.4V12h3.4zm-3.4 8.6v3.3h3.4V17zm0 8.3v3.4h3.4v-3.4zm4.2 11.2c.7 2.9 1.3 6.6 1.6 9.1l-2.8.6c-.2-2.5-.8-6.3-1.5-9.2zm24-15.4v13.7h-12.1V21.1zm-7.7 9.5h3.1v-5.3h-3.1zm15-17.5c-2.2-1.6-4.4-3.4-6.3-5.1q-2.4 2.7-5.4 5.1zm4 23.6c-.4 2.2-.9 4.5-1.6 6.5 2.4 1.6 5.1 3.6 6.5 5l-3.9 4.6c-1.1-1.2-3-2.7-4.9-4.2-1 1.8-2.1 3.5-3.2 4.8-1.1-1-3.5-2.9-4.9-3.7 3.2-3.2 5.1-8.4 6-14zm3-15.6v13.7h-12.5V21.1zm-8.1 9.5h3.5v-5.3h-3.5z" style="fill:#fff"/></svg>