<!-- Generator: Adobe Illustrator 25.0.0, SVG Export Plug-In  -->
<svg version="1.1" xmlns="http://www.w3.org/2000/svg" xmlns:xlink="http://www.w3.org/1999/xlink" x="0px" y="0px" width="293.8px"
	 height="53.5px" viewBox="0 0 293.8 53.5" style="overflow:visible;enable-background:new 0 0 293.8 53.5;" xml:space="preserve">
<style type="text/css">
	.st0{fill:#FFFFFF;}
</style>
<defs>
</defs>
<g>
	<path class="st0" d="M0,48.3l16.2-43h7.5l16.3,43h-7.3L21.8,18L20.2,13h-0.4L18.2,18L7.3,48.3H0z M7.7,37.2l2.2-6.1h9.5v6.1H7.7z
		 M19.4,37.2v-6.1h10l2.2,6.1H19.4z"/>
	<path class="st0" d="M48.7,48.3v-43h6.6v43H48.7z"/>
	<path class="st0" d="M76.1,41.9c-1.5,3.4-3.9,7.3-6,9.7c-1.1-1-3.3-2.7-4.6-3.5c2-2.1,3.9-5.1,5.1-7.8L76.1,41.9z M82.1,18.8h-14
		V2.7h27v16.1H84c0.5,0.8,1,1.7,1.3,2.6H97v5.1H65.6v-5.1h12.6l-0.8-1.6L82.1,18.8z M94.3,28.4V40h-9.7v7.4c0,2.7-0.4,4.1-2.3,5
		c-1.8,0.8-4.1,0.8-7.2,0.8c-0.3-1.7-1.1-3.9-1.8-5.4c1.7,0.1,3.5,0.1,4,0.1c0.6,0,0.8-0.2,0.8-0.7V40H69V28.4H94.3z M74.4,8.8h14
		V6.8h-14V8.8z M74.4,14.8h14v-2.1h-14V14.8z M75.2,35.7h12.5v-2.9H75.2V35.7z M90.2,40.1c1.4,2.3,3.1,5.2,4.2,7.4
		c6.6-3.1,13.1-8.6,16.6-14.9l6.2,2.3c-4.2,7.6-10.8,13.8-18.2,18c-1-1.6-2.9-3.7-4.4-5.1l0.5,1.2l-5,2.4c-0.8-2.4-2.7-6.3-4.5-9.2
		L90.2,40.1z M115,4.2c-3.9,5.4-9.5,10.3-14.8,13.6c-1.1-1.4-3-3.4-4.8-4.6c4.8-2.6,10.3-7.1,13.3-11.5L115,4.2z M116.2,19.5
		c-4.1,5.7-10.3,10.9-16,14.4c-1-1.5-3-3.5-4.6-4.8c5.1-2.7,11.3-7.5,14.5-12.2L116.2,19.5z"/>
	<path class="st0" d="M139,1.6v11.9h18.2V0.8h7v19.4H139v0.4c0,2.3-0.1,4.6-0.2,6.9h27.2v25.7H159v-19h-20.8
		c-1.1,7-3.4,13.7-8.6,19.2c-1.1-1.6-3.6-4.1-5.1-5.3c6.9-7.6,7.7-18,7.7-27.5v-19H139z"/>
	<path class="st0" d="M184.9,18.5V2.5h18.3v15.9h2.3v8.8H203v20.2c0,2.4-0.4,3.8-2,4.6c-1.6,0.8-3.6,0.9-6.5,0.9
		c-0.2-1.4-0.9-3.6-1.6-4.9c1.6,0.1,3.3,0.1,3.8,0.1c0.6,0,0.7-0.2,0.7-0.7v-5.1l-5.4,3.5l-1.5-3.1c-0.4,3.9-1.5,7.8-3.4,10.8
		c-1-1-3.4-2.6-4.7-3.2c2.8-4.2,3-9.9,3-14.4v-8.6h-2.8v-8.8H184.9z M200.4,23h-12.9v2.3h12.9V23z M197.7,9.6V7.3h-7.6v11.2h2.1V9.6
		H197.7z M197.4,35.5l-2.2,2.5c-1-1-2.7-2.5-4.3-3.7V36c0,1.6-0.1,3.3-0.2,5.1c2-0.8,4.3-1.9,6.8-3.1V35.5z M190.9,29.6v3.2l1.9-1.9
		c1.6,1.1,3.4,2.3,4.6,3.4v-4.6H190.9z M197.7,13.3h-2.1v5.1h2.1V13.3z M213.7,42.4h-5.9v-11H232v11h-6.3l4.2,1.2l-2.5,4h7.3v4.9
		H205v-4.9h6.7c-0.4-1.3-1-2.9-1.5-4.1L213.7,42.4z M234.3,24.8v4.8h-28.6v-4.8H234.3z M213.2,4.8v-4h5.2v4h2.4v-4h5.3v4h7.2v18
		h-26.7v-18H213.2z M211.5,11.7h2.9V9.2h-2.9V11.7z M211.5,18.5h2.9v-2.6h-2.9V18.5z M213.6,38.4h12.2v-2.9h-12.2V38.4z M223.8,42.4
		h-8.3c0.7,1.6,1.5,3.6,2,5.1h4.5C222.6,45.9,223.3,44,223.8,42.4z M218.4,11.7h2.6V9.2h-2.6V11.7z M218.4,18.5h2.6v-2.6h-2.6V18.5z
		 M225.1,11.7h2.9V9.2h-2.9V11.7z M225.1,18.5h2.9v-2.6h-2.9V18.5z"/>
	<path class="st0" d="M246.3,37.2c-0.4,3.7-1.1,9.1-2.1,12.2l-3.6-1.3c1.1-3.2,1.9-8.4,2.3-12.1L246.3,37.2z M282.3,2.1l-1.1,1.7
		c3.4,3,8.3,5.9,12.6,7.6c-1,1.5-2.1,4.5-2.5,6.1c-1.7-0.9-3.5-1.9-5.3-3.1v3.7h-16.5v-2.9c-1.3,0.9-2.6,1.7-3.9,2.5
		c-0.8-1.1-2.5-2.9-3.7-4V17h-4.9v3.3h5v5h-5v3.4h6.2c0,0,0,1.5-0.1,2.1c-0.3,10.5-0.5,15.9-1.2,18.6c3.3-3.2,5.4-8.1,6.5-13.5
		l5.6,1c-0.3,1.5-0.7,2.9-1.1,4.3c2,1.3,4.1,2.9,5.3,4.1l-3.4,4.4c-0.8-1-2.3-2.2-4-3.4c-1.3,2.7-2.9,5.1-4.8,7
		c-0.9-0.9-3-2.7-4.3-3.6c-0.2,0.6-0.4,1-0.6,1.3c-0.8,1.2-1.8,1.7-3.1,1.8c-1.1,0.2-2.9,0.3-4.6,0.2c-0.1-1.5-0.6-3.6-1.3-5
		c1.4,0.2,2.6,0.2,3.2,0.2c0.6,0,1-0.1,1.4-0.6c0.3-0.5,0.6-1.9,0.8-4.8l-2,0.7c-0.4-2-1.5-5-2.3-7.3l2.3-0.8c0.7,1.7,1.5,3.8,2,5.5
		l0.2-6.8h-14.6V2.9h19.5v5.5h-5.8V12h4.9v1.2C268,10,273.4,4.9,276.3,0L282.3,2.1z M249.5,37c0.3,3.3,0.5,7.4,0.5,10.2l-2.9,0.3
		c0.1-2.8,0-7-0.3-10.3L249.5,37z M252.1,8.4h-3.4V12h3.4V8.4z M248.7,17v3.3h3.4V17H248.7z M248.7,25.3v3.4h3.4v-3.4H248.7z
		 M252.9,36.5c0.7,2.9,1.3,6.6,1.6,9.1l-2.8,0.6c-0.2-2.5-0.8-6.3-1.5-9.2L252.9,36.5z M276.9,21.1v13.7h-12.1V21.1H276.9z
		 M269.2,30.6h3.1v-5.3h-3.1V30.6z M284.2,13.1c-2.2-1.6-4.4-3.4-6.3-5.1c-1.6,1.8-3.4,3.5-5.4,5.1H284.2z M288.2,36.7
		c-0.4,2.2-0.9,4.5-1.6,6.5c2.4,1.6,5.1,3.6,6.5,5l-3.9,4.6c-1.1-1.2-3-2.7-4.9-4.2c-1,1.8-2.1,3.5-3.2,4.8c-1.1-1-3.5-2.9-4.9-3.7
		c3.2-3.2,5.1-8.4,6-14L288.2,36.7z M291.2,21.1v13.7h-12.5V21.1H291.2z M283.1,30.6h3.5v-5.3h-3.5V30.6z"/>
</g>
</svg>
