<svg xmlns="http://www.w3.org/2000/svg" xmlns:xlink="http://www.w3.org/1999/xlink" xml:space="preserve" width="300" height="57.7" style="overflow:visible" viewBox="0 0 300 57.7"><defs><path id="SVGID_1_" d="M0 0h300v57.7H0z"/></defs><clipPath id="SVGID_2_"><use xlink:href="#SVGID_1_" style="overflow:visible"/></clipPath><path d="M22.8 26.6v-6.1h20.5c.2 1.1.3 2.4.3 3.8 0 4.6-1.3 10.3-5.3 14.3-3.9 4.1-8.9 6.3-15.6 6.3C10.4 44.8 0 34.8 0 22.4S10.4 0 22.7 0c6.8 0 11.7 2.7 15.4 6.2l-4.3 4.3c-2.6-2.5-6.2-4.4-11-4.4-9 0-16.1 7.3-16.1 16.3s7 16.3 16.1 16.3c5.8 0 9.2-2.4 11.3-4.5 1.7-1.7 2.9-4.2 3.3-7.6z" style="clip-path:url(#SVGID_2_);fill:#fff"/><path d="M74.9 30.4c0 8.3-6.5 14.4-14.5 14.4s-14.5-6.1-14.5-14.4C45.9 22 52.4 16 60.4 16c8-.1 14.5 6 14.5 14.4m-6.3 0c0-5.2-3.8-8.7-8.1-8.7s-8.1 3.5-8.1 8.7c0 5.1 3.8 8.7 8.1 8.7s8.1-3.6 8.1-8.7" style="clip-path:url(#SVGID_2_);fill:#fff"/><path d="M106.5 30.4c0 8.3-6.5 14.4-14.5 14.4s-14.5-6.1-14.5-14.4C77.5 22 84 16 92 16s14.5 6 14.5 14.4m-6.3 0c0-5.2-3.8-8.7-8.1-8.7S84 25.2 84 30.4c0 5.1 3.8 8.7 8.1 8.7s8.1-3.6 8.1-8.7" style="clip-path:url(#SVGID_2_);fill:#fff"/><path d="M136.8 16.8v25.9c0 10.6-6.3 15-13.7 15-7 0-11.2-4.7-12.8-8.5l5.5-2.3c1 2.4 3.4 5.1 7.3 5.1 4.7 0 7.7-2.9 7.7-8.5v-2.1h-.2c-1.4 1.7-4.2 3.3-7.6 3.3-7.2 0-13.9-6.3-13.9-14.4s6.6-14.5 13.9-14.5c3.5 0 6.2 1.5 7.6 3.2h.2v-2.4h6zm-5.6 13.6c0-5.1-3.4-8.8-7.7-8.8-4.4 0-8 3.7-8 8.8 0 5 3.6 8.7 8 8.7 4.3 0 7.7-3.6 7.7-8.7" style="clip-path:url(#SVGID_2_);fill:#fff"/><path d="M141.2 1.7h6.4V44h-6.4z" style="clip-path:url(#SVGID_2_);fill:#fff"/><path d="m172.1 35.1 4.9 3.3c-1.6 2.4-5.4 6.4-12 6.4-8.2 0-14.3-6.4-14.3-14.4 0-8.6 6.2-14.4 13.6-14.4 7.5 0 11.1 5.9 12.4 9.2l.6 1.6-19.3 8c1.5 2.9 3.8 4.4 7 4.4 3.2-.1 5.4-1.7 7.1-4.1m-15.2-5.2 12.9-5.4c-.7-1.8-2.8-3.1-5.4-3.1-3.1.1-7.6 3-7.5 8.5" style="clip-path:url(#SVGID_2_);fill:#fff"/><path d="M194.7 43.8v-40h13.8c2.4 0 4.6.5 6.6 1.6 2 1 3.5 2.4 4.7 4.3 1.2 1.8 1.8 4 1.8 6.4s-.6 4.5-1.8 6.4c-1.2 1.8-2.7 3.3-4.7 4.4q-3 1.5-6.6 1.5h-7.6V44h-6.2zm6.2-21.3h7.8c1.4 0 2.7-.3 3.7-.9s1.8-1.4 2.3-2.4c.6-1 .9-2.1.9-3.1 0-1.1-.3-2.1-.9-3.1-.5-1-1.3-1.8-2.3-2.4s-2.3-.9-3.7-.9h-7.8zm24.5-7.3h6.1v28.6h-6.1zm3-4.1c-1.1 0-2.1-.4-2.9-1.2s-1.2-1.8-1.2-2.9c0-1.2.4-2.1 1.2-2.8.8-.8 1.8-1.2 2.9-1.2 1.2 0 2.1.4 2.9 1.2s1.2 1.7 1.2 2.8-.4 2.1-1.2 2.9-1.7 1.2-2.9 1.2m6.1 32.7 10-14.5-9.9-14h7l6.5 9.5 6.2-9.5h7.3l-10 14 10.1 14.5h-7l-6.5-9.8-6.5 9.8zm41.9.9c-2.8 0-5.3-.6-7.5-2-2.2-1.3-3.9-3.1-5.2-5.4-1.2-2.3-1.8-4.8-1.8-7.8 0-2.7.6-5.3 1.8-7.6s2.8-4.2 5-5.5c2.2-1.4 4.7-2.1 7.4-2.1 2.9 0 5.4.6 7.5 1.9s3.7 3 4.7 5.2c1.1 2.2 1.6 4.7 1.6 7.4 0 .4 0 .8-.1 1.1 0 .3 0 .6-.1.8h-22.1c.2 1.6.5 2.9 1.2 4.1.8 1.4 1.9 2.5 3.2 3.3s2.8 1.1 4.4 1.1c1.9 0 3.5-.4 4.7-1.3 1.3-.9 2.3-2 3.1-3.3l5 2.4c-1.2 2.3-2.9 4-5 5.5-1.9 1.6-4.6 2.2-7.8 2.2m-8.3-18.4H284c-.1-.7-.2-1.4-.6-2.3-.3-.8-.8-1.6-1.4-2.3s-1.4-1.2-2.4-1.6c-1-.5-2.1-.7-3.4-.7-1.6 0-3.1.4-4.4 1.3-1.3.8-2.3 2-2.9 3.5-.4.7-.6 1.4-.8 2.1M294 43.8v-40h6v40.1z" style="clip-path:url(#SVGID_2_);fill:#fff"/></svg>